<?xml version="1.0" encoding="UTF-8"?>
<svg width="494px" height="256px" viewBox="0 0 494 256" version="1.1" xmlns="http://www.w3.org/2000/svg" xmlns:xlink="http://www.w3.org/1999/xlink">
    <!-- Generator: sketchtool 59.1 (101010) - https://sketch.com -->
    <title>B0D28BE8-01DE-43A5-96A4-C84C7162D085</title>
    <desc>Created with sketchtool.</desc>
    <g id="Page-1" stroke="none" stroke-width="1" fill="none" fill-rule="evenodd">
        <g id="Home" transform="translate(-728.000000, -322.000000)" fill="#FFFFFF">
            <g id="Banner">
                <path d="M997.1535,322 L1051.6485,322.053 L1051.6485,487.472 C1051.7175,488.189 1051.6865,488.801 1051.6635,489.248 L1051.6535,489.468 L1051.6855,514.3169 C1051.93334,515.958837 1052.38637,517.291472 1052.98231,518.369176 C1054.20074,520.573186 1056.01787,521.710899 1057.90009,522.247501 C1058.88833,522.529525 1059.89452,522.645431 1060.8415,522.6629 L1067.0235,522.7779 L1067.0235,576.4609 L1061.359,576.975 L1060.33907,577.085135 C1057.77775,577.340375 1055.19825,577.469 1052.6555,577.469 L1052.6505,577.469 C1041.81074,577.469 1030.06209,574.935155 1020.17625,568.954575 C1017.67168,567.464276 1015.29597,565.756247 1013.08881,563.816759 C1000.36373,571.887127 985.282276,576.5636 969.1293,576.5636 C923.7353,576.5636 886.8043,539.6326 886.8043,494.2386 C886.8043,473.54672 894.478148,454.613148 907.129409,440.134417 L907.0035,440.0079 L910.034334,436.978245 C910.696369,436.295219 911.370104,435.623596 912.055213,434.963703 C922.406692,424.829957 934.963159,417.950288 948.633051,414.498973 C955.187543,412.811365 962.055671,411.9146 969.1293,411.9146 L969.327459,411.915713 C969.454761,411.915171 969.582109,411.9149 969.7095,411.9149 C979.277305,411.9149 988.502769,413.563996 997.15319,416.707546 L997.1535,322 Z M1147.8915,412.1984 L1147.89121,417.108229 C1156.28788,414.232864 1165.28592,412.684 1174.6251,412.684 C1189.2291,412.684 1203.8301,416.822 1216.8491,424.652 L1221.9171,427.701 L1196.8321,476.1 L1190.9781,472.193 C1185.7291,468.688 1180.7711,466.984 1175.8191,466.984 C1160.6371,466.984 1148.1081,479.385 1147.8911,494.627 L1147.8911,577.421 L1093.4951,577.421 L1093.4955,412.1984 L1147.8915,412.1984 Z M825.314,411.4294 C835.117602,411.4291 844.660933,413.130755 853.606386,416.394309 L854.259415,416.635851 C854.554952,416.746546 854.849824,416.858953 855.144017,416.973067 C856.214396,417.38813 857.276341,417.826151 858.328707,418.28655 C858.623725,418.41572 858.917745,418.546435 859.211001,418.6789 C866.990981,422.193067 874.233024,426.939407 880.69371,432.816955 C881.66862,433.70389 882.625618,434.61644 883.564,435.5544 L888.02,440.0074 L888.0197,440.0081 L849.561,478.4844 L845.105,474.0344 C844.061701,472.992087 842.950567,472.042191 841.781548,471.188802 C841.193093,470.759264 840.589651,470.354013 839.972809,469.973754 C839.855366,469.901149 839.737052,469.829412 839.618257,469.758591 C839.41568,469.638069 839.211941,469.520116 839.006852,469.404836 L838.590887,469.175378 C838.543057,469.149557 838.495157,469.12388 838.447186,469.098347 C838.260472,468.9993 838.073095,468.902313 837.884694,468.807509 C837.601757,468.664757 837.31609,468.52709 837.028212,468.394406 C836.593999,468.194702 836.155165,468.006093 835.711681,467.828948 C835.608387,467.787232 835.504463,467.746443 835.40029,467.706283 C835.218661,467.636736 835.036929,467.568874 834.854469,467.502918 C834.739385,467.460833 834.623379,467.419765 834.507087,467.379467 C832.193597,466.578404 829.767392,466.08142 827.277335,465.90921 C827.255983,465.90708 827.234303,465.905605 827.212617,465.904154 C826.578928,465.862441 825.941457,465.8411 825.3007,465.8411 C820.4067,465.8411 815.5777,467.1351 811.3347,469.5861 C805.091271,473.191814 800.666945,478.960141 798.629324,485.520024 L798.546507,485.794724 C797.913865,487.950314 797.523799,490.217816 797.393757,492.568185 C797.267315,495.370133 797.560657,498.22288 798.3117,501.0371 C801.5907,513.2361 812.7007,521.7631 825.3237,521.7631 C832.8417,521.7631 839.8417,518.8551 845.0887,513.5751 L849.5437,509.0911 L888.0197,547.5851 L883.5637,552.0381 C868.0027,567.5921 847.3187,576.1581 825.3207,576.1581 C809.201031,576.1581 793.789425,571.559177 780.584021,562.982768 C768.477434,572.986854 751.883782,577.0544 736.964,577.0544 C735.997,577.0544 735.033,577.0374 734.081,577.0044 L728,576.7934 L728,522.7784 L734.182,522.6624 C737.808,522.5954 742.301,521.0854 743.333,514.3534 L743.158171,498.769069 C742.997389,496.085839 742.966863,493.396183 743.066594,490.710514 L743.059,489.8994 L743.07,489.6914 C743.266572,486.089976 743.690872,482.528894 744.334439,479.02726 C747.006415,464.233926 753.733495,450.037031 764.513623,438.243589 C764.725204,438.013634 764.9371,437.784103 765.150403,437.555689 C765.195058,437.507044 765.240441,437.458623 765.285893,437.410243 C765.87436,436.783857 766.472933,436.165764 767.082,435.5564 C768.200608,434.437217 769.345753,433.354207 770.51602,432.307955 C770.678118,432.163552 770.840379,432.019623 771.003116,431.876398 C780.737538,423.308356 792.176552,417.259935 804.518552,414.062658 C806.264513,413.610307 808.029164,413.214885 809.809623,412.877507 L810.499871,412.749901 C811.19116,412.625032 811.884778,412.508891 812.580592,412.401532 L813.277293,412.296887 C817.228336,411.721685 821.248483,411.4291 825.3137,411.4291 L825.314,411.4294 Z M1106.0951,483.563 L1106.0951,564.821 L1135.2911,564.821 L1135.29041,437.436426 C1120.1672,447.83035 1109.3147,464.163866 1106.0951,483.563 Z M1044.27564,527.846025 L1043.93685,528.596546 C1039.07595,539.138295 1032.05058,548.48477 1023.43396,556.062747 C1033.316,563.534076 1046.1517,564.7439 1053.4085,564.7439 C1053.7455,564.7439 1054.0845,564.7419 1054.4235,564.7369 L1054.4235,534.3079 C1053.80537,534.126087 1053.18917,533.916901 1052.57834,533.679123 C1049.55022,532.50047 1046.65418,530.619096 1044.31046,527.886975 L1044.27564,527.846025 L1044.27564,527.846025 Z M750.473472,528.159986 L750.236362,528.422761 C747.494766,531.395669 744.077855,533.285443 740.6,534.3084 L740.6,564.3404 C747.453783,563.935573 760.118346,562.173715 770.230217,555.026002 C769.159061,554.059694 768.110213,553.063613 767.0837,552.0371 C759.970791,544.920867 754.434052,536.815742 750.473472,528.159986 Z M899.4053,494.2386 C899.4053,532.6856 930.6833,563.9636 969.1293,563.9636 C982.164897,563.9636 994.376436,560.367775 1004.82412,554.11589 C1000.85464,547.796378 998.191906,540.016782 997.390538,530.57769 C997.308372,529.618912 997.245817,528.642616 997.2035,527.649 L997.1975,527.388 L997.197,527.167 L997.176262,523.600104 C989.879273,530.573375 979.995778,534.8616 969.1293,534.8616 C946.7293,534.8616 928.5053,516.6396 928.5053,494.2386 C928.5053,485.05139 931.57117,476.566719 936.733562,469.753866 L916.057206,449.06633 C905.677645,461.242897 899.4053,477.02203 899.4053,494.2386 Z M797.825657,523.587155 L797.825,527.5884 L797.812,527.7954 C797.1238,538.234107 794.005271,546.739217 789.279829,553.560557 C800.041654,560.075967 812.413231,563.5571 825.3207,563.5571 C841.8377,563.5571 857.4817,557.8551 870.0037,547.3831 L849.2247,526.5931 C842.3537,531.6391 834.0827,534.3631 825.3787,534.3631 L825.3767,534.3631 C814.895224,534.3631 805.147626,530.335725 797.825657,523.587155 Z M1009.77867,437.620074 L1009.797,527.127 L1009.7985,527.2429 C1009.85048,528.399596 1009.93511,529.521031 1010.05061,530.608264 C1010.07206,530.811969 1010.09484,531.014094 1010.1187,531.215026 L1010.05061,530.608264 C1010.0778,530.864301 1010.10671,531.118441 1010.13731,531.370699 L1010.1187,531.215026 C1010.15758,531.542531 1010.19933,531.86687 1010.24388,532.188072 L1010.13731,531.370699 C1010.17627,531.691906 1010.21797,532.01006 1010.26236,532.325189 L1010.24388,532.188072 C1011.04524,537.965912 1012.75427,542.72901 1015.05883,546.654185 L1015.28776,546.454999 C1029.19764,534.144366 1038.17039,516.374934 1038.81596,496.536624 L1038.71743,489.860756 C1037.63045,472.399231 1030.08707,456.658359 1018.45221,445.003053 L1018.5115,445.0629 C1018.34786,444.899202 1018.18363,444.736401 1018.0188,444.574499 C1018.01185,444.565783 1018.00384,444.557904 1017.99583,444.550028 L1018.0188,444.574499 C1017.32617,443.894161 1016.62303,443.229699 1015.90972,442.581334 C1013.96338,440.8159 1011.91616,439.159037 1009.77867,437.620074 Z M825.317704,424.0291 L825.314,424.0294 C814.444167,424.0294 803.955104,426.498796 794.48696,431.172001 L793.90847,431.460778 C787.367979,434.765891 781.325414,439.129552 775.9947,444.4631 C775.476768,444.98128 774.968701,445.505651 774.470501,446.035975 C774.406011,446.104527 774.341924,446.173123 774.277986,446.241838 L774.470501,446.035975 C774.00248,446.534176 773.543165,447.037632 773.092558,447.546147 C764.252577,457.548242 758.479619,469.908682 756.404246,483.207955 L756.263643,484.173036 C753.376171,505.09167 759.95319,527.07933 775.9947,543.1291 C777.004516,544.138839 778.039865,545.113813 779.099293,546.053418 C782.400777,541.165782 784.678038,534.983701 785.225,527.1674 L785.225,514.7734 L784.864681,496.639599 C784.772128,495.302756 784.746543,493.968643 784.786054,492.641776 L784.783,492.4804 L784.793,492.2734 C784.805091,492.011705 784.81943,491.750699 784.836005,491.490403 C784.940567,489.709335 785.161474,487.94396 785.494901,486.205133 C787.688473,474.534587 794.595528,464.70319 805.033,458.6744 C808.203758,456.843036 811.601151,455.456451 815.121278,454.542398 L815.743931,454.385799 C816.753237,454.140635 817.772059,453.934152 818.797989,453.766993 C819.251625,453.693329 819.706017,453.627199 820.161583,453.568792 L820.800147,453.491811 C821.424594,453.421803 822.051065,453.366286 822.679028,453.3254 C822.916731,453.3102 823.154126,453.29685 823.391704,453.285595 C823.806662,453.265651 824.222706,453.252367 824.639162,453.24553 C824.859594,453.242207 825.079752,453.2404 825.3,453.2404 C827.676973,453.2401 830.022229,453.442786 832.31667,453.839922 L832.889135,453.943368 C836.318053,454.587464 839.628759,455.667509 842.754429,457.155913 L843.273755,457.40789 C845.343816,458.430315 847.330064,459.633464 849.2127,461.0091 L870.0037,440.2091 C865.087884,436.097476 859.691306,432.720935 853.949876,430.135823 C845.063437,426.135032 835.350947,424.02982 825.317002,424.0294 L825.317704,424.0291 Z M969.727144,466.221883 L969.7545,466.2229 C965.737159,466.2229 961.782971,466.954508 958.163407,468.450091 C954.77091,469.898408 951.719892,471.99717 949.168209,474.588903 C949.06008,474.698279 948.95349,474.8082 948.848116,474.918671 L949.168209,474.588903 C949.005891,474.753769 948.845594,474.920629 948.687358,475.089443 C948.592756,475.189503 948.499619,475.290308 948.407449,475.391551 L948.687358,475.089443 C948.51757,475.270582 948.350155,475.453971 948.185163,475.63956 L948.184947,475.638916 C948.036335,475.806967 947.889478,475.976164 947.744631,476.147114 C947.646681,476.262274 947.550485,476.377806 947.45542,476.493851 L947.744631,476.147114 C947.604839,476.312097 947.466918,476.478712 947.330901,476.646928 L947.45542,476.493851 C946.864929,477.214661 946.318109,477.955268 945.80992,478.713433 C942.839539,483.160655 941.1063,488.501017 941.1063,494.2386 C941.1063,509.6916 953.6773,522.2626 969.1293,522.2626 C983.640848,522.2626 995.611415,511.175247 997.014785,497.025928 L996.979386,491.115222 C996.978385,491.106234 996.977379,491.097248 996.976369,491.088262 L996.9785,491.1079 C995.997986,483.926205 992.410324,477.255993 987.081172,472.736 C985.902521,471.750793 984.642664,470.86051 983.312798,470.07686 L983.3245,470.0849 C982.439974,469.574244 981.547101,469.108632 980.643449,468.691482 C977.30066,467.178792 973.609746,466.303552 969.727144,466.221883 Z M1174.6251,425.284 C1165.17578,425.284 1156.13899,427.158295 1147.89095,430.585297 L1147.8913,465.675711 C1155.18534,458.684999 1165.04153,454.384 1175.8191,454.384 C1181.2741,454.384 1186.5841,455.645 1191.9081,458.218 L1205.1841,432.604 C1195.4711,427.743 1185.2171,425.284 1174.6251,425.284 Z M969.418762,424.515191 L969.6545,424.5159 C965.20332,424.5159 960.819383,424.89474 956.544584,425.653243 C944.75181,427.810899 933.986616,432.945733 925.05847,440.246862 L945.800566,460.999205 C946.047106,460.825673 946.295655,460.654812 946.54617,460.486663 C950.637721,457.646348 955.172776,455.7258 959.983408,454.653915 C962.923841,453.975563 965.98544,453.6166 969.1293,453.6166 L969.546318,453.620021 C969.58237,453.61994 969.618431,453.6199 969.6545,453.6199 C976.419317,453.6199 982.778685,455.370495 988.672134,458.633261 C988.759809,458.681876 988.847035,458.730362 988.934063,458.779158 C989.013855,458.824326 989.093541,458.869479 989.17314,458.91491 C989.278353,458.974205 989.382876,459.034363 989.487106,459.094971 C989.508643,459.108321 989.530575,459.1211 989.5525,459.1339 L989.853181,459.310404 C992.501034,460.887326 994.955358,462.756679 997.17127,464.873576 L997.156005,430.397047 C988.658091,426.651938 979.276488,424.555463 969.418762,424.515191 Z M1009.7535,334.611 L1009.77387,422.584964 C1014.61742,425.37325 1019.20787,428.679312 1023.49377,432.468973 C1023.57075,432.535836 1023.64668,432.602993 1023.72248,432.670287 C1023.90795,432.837069 1024.09361,433.003828 1024.27869,433.171501 C1025.33504,434.123437 1026.36505,435.103751 1027.36924,436.109842 C1027.39602,436.137434 1027.42327,436.164657 1027.4505,436.1919 C1031.86922,440.612806 1035.75698,445.471141 1039.04917,450.685111 L1039.0485,334.639 L1009.7535,334.611 Z M1131.59182,424.797173 L1106.0955,424.7984 L1106.09435,449.571117 C1112.70067,439.502291 1121.42037,431.055863 1131.59182,424.797173 Z" id="logo"></path>
            </g>
        </g>
    </g>
</svg>